{"title":"\nThe Mummy (2017) BluRay 1080P No Cinavia","magnet":"magnet:?xt=urn:btih:4b618041b583a11d91a5577468d6211f1f3e407d&dn=The+Mummy+%282017%29+BluRay+1080P+No+Cinavia&tr=udp%3A%2F%2Ftracker.leechers-paradise.org%3A6969&tr=udp%3A%2F%2Fzer0day.ch%3A1337&tr=udp%3A%2F%2Fopen.demonii.com%3A1337&tr=udp%3A%2F%2Ftracker.coppersurfer.tk%3A6969&tr=udp%3A%2F%2Fexodus.desync.com%3A6969","uploader":"jmanwf","categoryP":"video","categoryS":"hd___movies","size":"7252757647","seeders":"7","leechers":"11","description":"An ancient Egyptian princess is awakened from her crypt beneath the desert, bringing with her malevolence grown over millennia, and terrors that defy human comprehension.\r\n\r\nFormat                                   : Matroska\r\nFormat version                           : Version 4 / Version 2\r\nFile size                                : 6.75 GiB\r\nDuration                                 : 1 h 50 min\r\nOverall bit rate                         : 8 784 kb/s\r\n\r\nAudio #1\r\nID                                       : 2\r\nFormat                                   : AC-3\r\nFormat/Info                              : Audio Coding 3\r\nFormat settings, Endianness              : Big\r\nCodec ID                                 : A_AC3\r\nDuration                                 : 1 h 50 min\r\nBit rate mode                            : Constant\r\nBit rate                                 : 576 kb/s\r\nChannel(s)                               : 6 channels\r\nChannel positions                        : Front: L C R, Side: L R, LFE\r\nSampling rate                            : 48.0 kHz\r\nFrame rate                               : 31.250 FPS (1536 spf)\r\nBit depth                                : 16 bits\r\nCompression mode                         : Lossy\r\nStream size                              : 454 MiB (7%)\r\nLanguage                                 : English\r\nService kind                             : Complete Main\r\nDefault                                  : Yes\r\nForced                                   : No\r\n\r\nAudio #2\r\nID                                       : 3\r\nFormat                                   : AC-3\r\nFormat/Info                              : Audio Coding 3\r\nFormat settings, Endianness              : Big\r\nCodec ID                                 : A_AC3\r\nDuration                                 : 1 h 50 min\r\nBit rate mode                            : Constant\r\nBit rate                                 : 192 kb/s\r\nChannel(s)                               : 2 channels\r\nChannel positions                        : Front: L R\r\nSampling rate                            : 48.0 kHz\r\nFrame rate                               : 31.250 FPS (1536 spf)\r\nBit depth                                : 16 bits\r\nCompression mode                         : Lossy\r\nStream size                              : 151 MiB (2%)\r\nLanguage                                 : English\r\nService kind                             : Complete Main\r\nDefault                                  : No\r\nForced                                   : No","last_updated":"2017-09-22T12:13:37.716Z","parsed":{"xt":"urn:btih:4b618041b583a11d91a5577468d6211f1f3e407d","dn":"The Mummy (2017) BluRay 1080P No Cinavia","tr":["udp://exodus.desync.com:6969","udp://open.demonii.com:1337","udp://tracker.coppersurfer.tk:6969","udp://tracker.leechers-paradise.org:6969","udp://zer0day.ch:1337"],"infoHash":"4b618041b583a11d91a5577468d6211f1f3e407d","infoHashBuffer":{"type":"Buffer","data":[75,97,128,65,181,131,161,29,145,165,87,116,104,214,33,31,31,62,64,125]},"name":"The Mummy (2017) BluRay 1080P No Cinavia","announce":["udp://exodus.desync.com:6969","udp://open.demonii.com:1337","udp://tracker.coppersurfer.tk:6969","udp://tracker.leechers-paradise.org:6969","udp://zer0day.ch:1337"],"urlList":[]}}